<?xml version="1.0" standalone="no"?>
<!DOCTYPE svg PUBLIC "-//W3C//DTD SVG 20010904//EN"
 "http://www.w3.org/TR/2001/REC-SVG-20010904/DTD/svg10.dtd">
<svg version="1.0" xmlns="http://www.w3.org/2000/svg"
 width="165.000000pt" height="165.000000pt" viewBox="0 0 165.000000 165.000000"
 preserveAspectRatio="xMidYMid meet">
<metadata>
Created by potrace 1.14, written by Peter Selinger 2001-2017
</metadata>
<g transform="translate(0.000000,165.000000) scale(0.100000,-0.100000)"
fill="#000000" stroke="none">
<path d="M780 1245 c0 -8 7 -15 15 -15 8 0 15 7 15 15 0 8 -7 15 -15 15 -8 0
-15 -7 -15 -15z"/>
<path d="M972 1248 c-16 -20 -13 -95 4 -109 17 -14 94 -13 108 1 14 14 18 78
6 100 -8 16 -21 20 -59 20 -27 0 -53 -6 -59 -12z"/>
<path d="M642 1194 c-21 -14 -28 -75 -12 -104 8 -16 21 -20 60 -20 28 0 52 5
56 12 14 22 13 96 -1 108 -19 16 -83 18 -103 4z"/>
<path d="M827 1191 c-3 -12 -3 -30 0 -41 4 -17 12 -20 37 -17 28 3 31 7 31 38
0 31 -3 34 -31 37 -25 2 -33 -1 -37 -17z"/>
<path d="M872 1079 c2 -6 8 -10 13 -10 5 0 11 4 13 10 2 6 -4 11 -13 11 -9 0
-15 -5 -13 -11z"/>
<path d="M972 1051 c-5 -3 -9 -19 -8 -36 1 -27 4 -30 39 -33 36 -3 37 -3 37
32 0 20 -3 36 -7 37 -5 0 -18 2 -30 3 -12 1 -26 0 -31 -3z"/>
<path d="M660 1014 c0 -17 22 -14 28 4 2 7 -3 12 -12 12 -9 0 -16 -7 -16 -16z"/>
<path d="M776 1018 c-25 -14 -22 -104 3 -118 30 -15 87 -12 102 6 18 22 20 78
4 100 -14 20 -81 27 -109 12z"/>
<path d="M524 966 c-11 -29 0 -61 24 -64 31 -5 49 12 48 45 -2 24 -7 28 -34
31 -21 2 -34 -2 -38 -12z"/>
<path d="M1107 953 c-12 -11 -8 -23 8 -23 8 0 15 7 15 15 0 16 -12 20 -23 8z"/>
<path d="M657 924 c-5 -26 0 -30 38 -36 16 -2 21 3 23 30 3 30 1 32 -26 32
-24 0 -31 -5 -35 -26z"/>
<path d="M947 936 c-3 -8 0 -17 8 -19 17 -7 25 1 18 19 -7 18 -19 18 -26 0z"/>
<path d="M995 882 c-34 -7 -45 -23 -45 -66 0 -54 13 -66 72 -66 35 0 50 5 56
18 10 19 9 83 -1 99 -8 12 -53 20 -82 15z"/>
<path d="M880 851 c0 -16 28 -20 34 -5 4 9 -1 14 -14 14 -11 0 -20 -4 -20 -9z"/>
<path d="M750 836 c0 -9 7 -16 16 -16 17 0 14 22 -4 28 -7 2 -12 -3 -12 -12z"/>
<path d="M622 828 c6 -18 28 -21 28 -4 0 9 -7 16 -16 16 -9 0 -14 -5 -12 -12z"/>
<path d="M799 795 c-10 -40 4 -64 36 -58 20 4 25 11 25 34 0 26 -4 29 -30 29
-16 0 -31 -2 -31 -5z"/>
<path d="M633 778 c-16 -22 -15 -94 2 -108 18 -15 91 -15 110 0 15 12 16 85 2
108 -5 7 -29 12 -56 12 -27 0 -53 -6 -58 -12z"/>
<path d="M936 685 c-10 -28 -7 -43 13 -50 31 -10 52 5 49 34 -2 20 -9 27 -29
29 -17 2 -29 -3 -33 -13z"/>
<path d="M795 661 c-7 -12 12 -24 25 -16 11 7 4 25 -10 25 -5 0 -11 -4 -15 -9z"/>
<path d="M855 620 c-4 -7 -1 -16 6 -21 17 -10 26 8 11 23 -6 6 -12 6 -17 -2z"/>
<path d="M699 552 c-1 -4 -3 -42 -4 -84 -3 -71 -2 -78 16 -78 17 0 19 8 19 79
0 61 -3 80 -15 85 -8 3 -16 2 -16 -2z"/>
<path d="M42 543 c-22 -9 -44 -63 -37 -92 12 -47 33 -61 92 -61 38 0 53 4 53
14 0 8 -11 13 -27 14 -68 0 -74 2 -84 28 -16 44 11 74 66 74 33 0 45 4 45 15
0 11 -12 15 -47 14 -27 0 -54 -3 -61 -6z"/>
<path d="M206 529 c-20 -16 -26 -29 -26 -57 1 -52 21 -73 73 -79 36 -4 49 -1
66 16 50 50 15 141 -54 141 -18 0 -44 -9 -59 -21z m88 -25 c19 -18 21 -55 4
-72 -31 -31 -88 -4 -88 42 0 20 28 46 50 46 10 0 26 -7 34 -16z"/>
<path d="M393 528 c-49 -53 -21 -138 45 -138 19 0 29 5 29 15 0 9 -9 15 -22
15 -29 0 -45 19 -45 52 0 32 24 48 73 48 22 0 37 6 41 15 4 12 -5 15 -48 15
-42 0 -57 -5 -73 -22z"/>
<path d="M542 471 c0 -74 2 -81 20 -81 17 0 19 5 15 40 -2 22 -3 40 0 40 2 0
21 -18 42 -40 21 -22 40 -40 43 -40 3 0 6 36 7 80 1 75 0 80 -19 80 -12 0 -20
-6 -19 -12 1 -7 1 -26 0 -43 l-1 -29 -44 43 -45 44 1 -82z"/>
<path d="M787 538 c-37 -29 -42 -93 -9 -130 21 -24 122 -26 122 -2 0 8 -3 13
-7 11 -5 -3 -28 -2 -52 2 -38 5 -46 10 -52 33 -11 43 13 68 67 68 32 0 44 4
44 15 0 19 -88 21 -113 3z"/>
<path d="M1025 473 l0 -78 64 -3 c48 -2 62 0 59 10 -4 12 -14 14 -74 17 -19 1
-21 7 -20 63 1 48 -2 63 -14 66 -12 2 -15 -11 -15 -75z"/>
<path d="M1195 474 c-19 -42 -35 -78 -35 -80 0 -10 30 -2 37 10 4 7 25 15 46
18 30 3 41 0 48 -14 8 -16 39 -26 39 -14 0 3 -15 39 -34 80 -21 46 -41 76 -50
76 -9 0 -29 -30 -51 -76z m69 -15 c-6 -10 -35 -4 -34 7 0 5 3 18 6 28 6 18 7
18 19 -5 7 -13 11 -27 9 -30z"/>
<path d="M1346 483 c1 -38 2 -74 3 -80 1 -9 20 -13 61 -13 69 0 77 9 78 83 0
63 -15 77 -86 77 l-57 0 1 -67z m109 26 c10 -15 -1 -22 -40 -25 -29 -3 -35 0
-35 16 0 16 7 20 34 20 19 0 38 -5 41 -11z m3 -71 c-5 -14 -47 -27 -65 -20 -7
2 -13 10 -13 18 0 10 13 14 41 14 28 0 39 -4 37 -12z"/>
<path d="M1515 534 c-11 -12 -14 -25 -10 -43 8 -33 5 -31 56 -37 81 -10 80
-34 0 -37 -73 -3 -68 -21 6 -25 58 -3 64 -1 74 21 14 32 -3 67 -34 68 -66 2
-84 9 -72 28 3 6 31 11 61 11 76 0 69 24 -8 28 -42 2 -60 -1 -73 -14z"/>
<path d="M478 463 c-2 -4 -3 -14 -2 -20 1 -7 2 -22 3 -33 2 -33 31 -24 31 9 0
28 -24 60 -32 44z"/>
</g>
</svg>
